# xmcd
#
# Track frame offsets: 
#        150
#        16649
#        30354
#        45188
#        62533
#        78977
#        93897
#        111618
#        134273
#        149185
#        166168
#        181570
#        199438
#        214963
#        229117
#        244166
#        263179
#        278236
#        296714
#        314267
#        329729
#
# Disc length: 4666 seconds
#
# Revision: 3
# Processed by: cddbd v1.5.2PL0 Copyright (c) Steve Scherf et al.
# Submitted via: ExactAudioCopy v0.90b4
#
DISCID=31123815
DTITLE=Various Artist - Bravo Hits 53 (1)
DYEAR=2006
DGENRE=Eurodance
TTITLE0=Tobias Regner - I Still Burn
TTITLE1=Texas Lightning - No No Never
TTITLE2=P!nk - Stupid Girls
TTITLE3=The Pussycat Dolls - Beep
TTITLE4=Sugababes - Red Dress
TTITLE5=Flipsyde - Happy Birthday
TTITLE6=Rapsoul - Gott Schenk Ihr Flügel
TTITLE7=Xavier Naidoo - Bist Du Am Leben Interessiert
TTITLE8=Muhabbet - Ich Will Nicht Gehn
TTITLE9=Tarkan - Bounce
TTITLE10=Philippe - Ich Kann Dich Lieben
TTITLE11=Eric Bennet and Yvonne Catterfeld - Where Does The Love Go
TTITLE12=Bow Wow and Ciara - Like You
TTITLE13=Tomcraft and Sido - Sureshot
TTITLE14=DJ Bobo and Sandra - Secrets Of Love
TTITLE15=West End Girls - Domino Dancing
TTITLE16=Blank and Jones - Catch
TTITLE17=Kate Ryan - Je T'adore
TTITLE18=Marie Serneholt - That's The Way My Heart Goes
TTITLE19=Blog 27 - Hey Boy (Get Your Ass Up)
TTITLE20=US5 - Best Friends
EXTD=
EXTT0=
EXTT1=
EXTT2=
EXTT3=
EXTT4=
EXTT5=
EXTT6=
EXTT7=
EXTT8=
EXTT9=
EXTT10=
EXTT11=
EXTT12=
EXTT13=
EXTT14=
EXTT15=
EXTT16=
EXTT17=
EXTT18=
EXTT19=
EXTT20=
PLAYORDER=
